<svg width="83" height="127" viewBox="0 0 83 127" fill="none" xmlns="http://www.w3.org/2000/svg">
<path d="M6.23821 116.415C5.89811 118.92 4.61459 121.064 2.79248 122.539V11.972C2.89132 11.8065 2.99343 11.6347 3.0987 11.4575C4.1222 9.73524 5.44455 7.51006 6.96422 5.66009C7.83808 4.5963 8.73798 3.70698 9.63484 3.12225C10.5282 2.53979 11.3462 2.30465 12.1052 2.40773C17.3197 3.11589 20.9729 7.91721 20.2647 13.1318L6.23821 116.415Z" fill="white" stroke="black" stroke-width="2"/>
<path d="M5.52489 113.851C5.943 116.93 4.84099 119.866 2.79248 121.9V93.7309L5.52489 113.851Z" fill="white" stroke="black" stroke-width="2"/>
<rect x="-1.12547" y="0.856334" width="19.0569" height="123.289" rx="9.52846" transform="matrix(-0.990904 -0.13457 -0.13457 0.990904 51.0796 2.68995)" fill="white" stroke="black" stroke-width="2"/>
<rect x="1.86522" y="3.68995" width="19.0569" height="123.289" rx="9.52846" transform="rotate(-7.73377 1.86522 3.68995)" fill="white" stroke="black" stroke-width="2"/>
<rect x="-1.12547" y="0.856334" width="19.0569" height="123.289" rx="9.52846" transform="matrix(-0.990904 -0.13457 -0.13457 0.990904 80.5591 2.68998)" fill="white" stroke="black" stroke-width="2"/>
<rect x="31.3447" y="3.68998" width="19.0569" height="123.289" rx="9.52846" transform="rotate(-7.73377 31.3447 3.68998)" fill="white" stroke="black" stroke-width="2"/>
<circle cx="71.2804" cy="11.3755" r="9.52846" fill="white" stroke="black" stroke-width="2"/>
<path d="M73.6681 1.32504L74.4126 2.06951L62.501 13.9811L61.7565 13.2366L73.6681 1.32504Z" fill="black"/>
<path d="M78.135 4.30294L78.8794 5.04741L65.4789 18.4479L64.7344 17.7035L78.135 4.30294Z" fill="black"/>
<path d="M81.1129 8.76978L81.8573 9.51426L69.9458 21.4258L69.2013 20.6814L81.1129 8.76978Z" fill="black"/>
</svg>
