<svg width="97" height="127" viewBox="0 0 97 127" fill="none" xmlns="http://www.w3.org/2000/svg">
<rect x="-1.12547" y="0.856334" width="19.0569" height="123.289" rx="9.52846" transform="matrix(-0.990904 -0.13457 -0.13457 0.990904 35.6001 2.68995)" fill="white" stroke="black" stroke-width="2"/>
<path d="M2.26172 114.85L2.26977 64.0894H21.3267L21.3186 114.853C21.3178 120.115 17.0511 124.381 11.7887 124.38C6.52624 124.379 2.26089 120.112 2.26172 114.85Z" fill="white" stroke="black" stroke-width="2"/>
<rect x="-1.12547" y="0.856334" width="19.0569" height="123.289" rx="9.52846" transform="matrix(-0.990904 -0.13457 -0.13457 0.990904 65.3399 2.68995)" fill="white" stroke="black" stroke-width="2"/>
<rect x="16.1255" y="3.68995" width="19.0569" height="123.289" rx="9.52846" transform="rotate(-7.73377 16.1255 3.68995)" fill="white" stroke="black" stroke-width="2"/>
<rect x="-1.12547" y="0.856334" width="19.0569" height="123.289" rx="9.52846" transform="matrix(-0.990904 -0.13457 -0.13457 0.990904 94.8194 2.68998)" fill="white" stroke="black" stroke-width="2"/>
<rect x="45.605" y="3.68998" width="19.0569" height="123.289" rx="9.52846" transform="rotate(-7.73377 45.605 3.68998)" fill="white" stroke="black" stroke-width="2"/>
<circle cx="85.5407" cy="11.3755" r="9.52846" fill="white" stroke="black" stroke-width="2"/>
<path d="M87.9284 1.32507L88.6729 2.06955L76.7613 13.9811L76.0168 13.2367L87.9284 1.32507Z" fill="black"/>
<path d="M92.3952 4.30297L93.1397 5.04744L79.7392 18.448L78.9947 17.7035L92.3952 4.30297Z" fill="black"/>
<path d="M95.3731 8.76981L96.1176 9.51429L84.206 21.4259L83.4615 20.6814L95.3731 8.76981Z" fill="black"/>
</svg>
