<svg width="104" height="127" viewBox="0 0 104 127" fill="none" xmlns="http://www.w3.org/2000/svg">
<rect x="-1.12547" y="0.856334" width="19.0569" height="123.289" rx="9.52846" transform="matrix(-0.990904 -0.13457 -0.13457 0.990904 41.8892 2.68995)" fill="white" stroke="black" stroke-width="2"/>
<path d="M19.1954 124.098C13.9822 124.816 9.174 121.172 8.45606 115.959L1.1956 62.9427L20.3917 62.9427L27.3348 113.359C28.0527 118.572 24.4086 123.38 19.1954 124.098Z" fill="white" stroke="black" stroke-width="2"/>
<rect x="-1.12547" y="0.856334" width="19.0569" height="123.289" rx="9.52846" transform="matrix(-0.990904 -0.13457 -0.13457 0.990904 71.6289 2.68995)" fill="white" stroke="black" stroke-width="2"/>
<rect x="22.4145" y="3.68995" width="19.0569" height="123.289" rx="9.52846" transform="rotate(-7.73377 22.4145 3.68995)" fill="white" stroke="black" stroke-width="2"/>
<rect x="-1.12547" y="0.856334" width="19.0569" height="123.289" rx="9.52846" transform="matrix(-0.990904 -0.13457 -0.13457 0.990904 101.109 2.68998)" fill="white" stroke="black" stroke-width="2"/>
<rect x="51.8945" y="3.68998" width="19.0569" height="123.289" rx="9.52846" transform="rotate(-7.73377 51.8945 3.68998)" fill="white" stroke="black" stroke-width="2"/>
<circle cx="91.8297" cy="11.3755" r="9.52846" fill="white" stroke="black" stroke-width="2"/>
<path d="M94.2174 1.32507L94.9619 2.06955L83.0503 13.9811L82.3059 13.2367L94.2174 1.32507Z" fill="black"/>
<path d="M98.6843 4.30297L99.4288 5.04744L86.0282 18.448L85.2838 17.7035L98.6843 4.30297Z" fill="black"/>
<path d="M101.662 8.76981L102.407 9.51429L90.4951 21.4259L89.7506 20.6814L101.662 8.76981Z" fill="black"/>
</svg>
